<?xml version="1.0" encoding="UTF-8" standalone="no"?>
<!DOCTYPE svg PUBLIC "-//W3C//DTD SVG 1.1//EN" "http://www.w3.org/Graphics/SVG/1.1/DTD/svg11.dtd">
<svg width="100%" height="100%" viewBox="0 0 2560 1440" version="1.1" xmlns="http://www.w3.org/2000/svg" xmlns:xlink="http://www.w3.org/1999/xlink" xml:space="preserve" xmlns:serif="http://www.serif.com/" style="fill-rule:evenodd;clip-rule:evenodd;">
    <g transform="matrix(1.333333,0,0,1.333333,0,0)">
        <rect x="0" y="0" width="1920" height="1080" style="fill:white;"/>
    </g>
    <g transform="matrix(1.333333,0,0,1.333333,0,-110.144347)">
        <rect x="1538.643" y="554.584" width="332.35" height="53.44"/>
    </g>
    <g transform="matrix(1.333333,0,0,-1.333333,2051.524,700.554613)">
        <rect x="0" y="0" width="332.35" height="53.44" style="fill:none;stroke:black;stroke-width:4px;"/>
    </g>
    <g transform="matrix(1.333333,0,0,1.333333,0,-110.144347)">
        <rect x="676.141" y="554.584" width="201.678" height="53.44"/>
    </g>
    <g transform="matrix(1.333333,0,0,-1.333333,901.521067,700.554613)">
        <rect x="0" y="0" width="201.678" height="53.44" style="fill:none;stroke:black;stroke-width:4px;"/>
    </g>
    <g transform="matrix(1.333333,0,0,1.333333,0,-110.144347)">
        <rect x="544.053" y="554.584" width="106.618" height="53.44"/>
    </g>
    <g transform="matrix(1.333333,0,0,-1.333333,725.4036,700.554613)">
        <rect x="0" y="0" width="106.618" height="53.44" style="fill:none;stroke:black;stroke-width:4px;"/>
    </g>
    <g transform="matrix(1.333333,0,0,1.333333,0,-110.144347)">
        <rect x="913.984" y="554.584" width="147.125" height="53.44"/>
    </g>
    <g transform="matrix(1.333333,0,0,-1.333333,1218.645333,700.554613)">
        <rect x="0" y="0" width="147.125" height="53.44" style="fill:none;stroke:black;stroke-width:4px;"/>
    </g>
    <g transform="matrix(1.333333,0,0,1.333333,0,-110.60808)">
        <rect x="1089.532" y="554.758" width="179.7" height="53.44"/>
    </g>
    <g transform="matrix(1.333333,0,0,-1.333333,1452.709333,700.322613)">
        <rect x="0" y="0" width="179.7" height="53.44" style="fill:none;stroke:black;stroke-width:4px;"/>
    </g>
    <g transform="matrix(1.333333,0,0,1.333333,0,166.550053)">
        <rect x="299.393" y="450.824" width="147.125" height="53.44"/>
    </g>
    <g transform="matrix(1.333333,0,0,-1.333333,399.190133,838.901813)">
        <rect x="0" y="0" width="147.125" height="53.44" style="fill:none;stroke:black;stroke-width:4px;"/>
    </g>
    <g transform="matrix(1.333333,0,0,1.333333,0,166.550053)">
        <rect x="1212.621" y="450.824" width="147.125" height="53.44"/>
    </g>
    <g transform="matrix(1.333333,0,0,-1.333333,1616.828,838.901813)">
        <rect x="0" y="0" width="147.125" height="53.44" style="fill:none;stroke:black;stroke-width:4px;"/>
    </g>
    <g transform="matrix(1.333333,0,0,1.333333,0,166.550053)">
        <rect x="637.853" y="450.824" width="179.7" height="53.44"/>
    </g>
    <g transform="matrix(1.333333,0,0,-1.333333,850.470667,838.901813)">
        <rect x="0" y="0" width="179.7" height="53.44" style="fill:none;stroke:black;stroke-width:4px;"/>
    </g>
    <g transform="matrix(1.333333,0,0,1.333333,0,166.550053)">
        <rect x="1751.434" y="450.824" width="147.125" height="53.44"/>
    </g>
    <g transform="matrix(1.333333,0,0,-1.333333,2335.245333,838.901813)">
        <rect x="0" y="0" width="147.125" height="53.44" style="fill:none;stroke:black;stroke-width:4px;"/>
    </g>
    <g transform="matrix(1.333333,0,0,1.333333,0,166.550053)">
        <rect x="468.623" y="450.824" width="147.125" height="53.44"/>
    </g>
    <g transform="matrix(1.333333,0,0,-1.333333,624.8304,838.901813)">
        <rect x="0" y="0" width="147.125" height="53.44" style="fill:none;stroke:black;stroke-width:4px;"/>
    </g>
    <g transform="matrix(1.333333,0,0,1.333333,0,557.667387)">
        <rect x="1185.344" y="304.155" width="201.678" height="53.44" style="fill:rgb(142,250,0);"/>
    </g>
    <g transform="matrix(1.333333,0,0,-1.333333,1580.458667,1034.46048)">
        <rect x="0" y="0" width="201.678" height="53.44" style="fill:none;stroke:black;stroke-width:4px;"/>
    </g>
    <g transform="matrix(1.333333,0,0,1.333333,0,556.640187)">
        <rect x="753.251" y="304.54" width="332.35" height="53.44" style="fill:rgb(142,250,0);"/>
    </g>
    <g transform="matrix(1.333333,0,0,-1.333333,1004.3348,1033.946747)">
        <rect x="0" y="0" width="332.35" height="53.44" style="fill:none;stroke:black;stroke-width:4px;"/>
    </g>
    <g transform="matrix(1.333333,0,0,1.333333,0,1031.46312)">
        <rect x="794.246" y="126.481" width="386.6" height="53.44" style="fill:rgb(148,55,255);"/>
    </g>
    <g transform="matrix(1.333333,0,0,-1.333333,1058.9952,1271.358347)">
        <rect x="0" y="0" width="386.6" height="53.44" style="fill:none;stroke:black;stroke-width:4px;"/>
    </g>
    <g transform="matrix(1.333333,0,0,-1.333333,1714.8,980.266667)">
        <path d="M0,14.8L0,89.3" style="fill:none;fill-rule:nonzero;stroke:black;stroke-width:4px;"/>
    </g>
    <g transform="matrix(1.333333,0,0,1.333333,0,265.333333)">
        <path d="M1294.5,448.9L1286.1,432.1L1277.7,448.9L1294.5,448.9Z" style="fill-rule:nonzero;"/>
    </g>
    <g transform="matrix(0,-1.333333,1.333333,0,1028.933333,1038.4)">
        <path d="M58.8,147.7L91.1,147.7L91.1,-44L132.9,-44" style="fill:none;fill-rule:nonzero;stroke:black;stroke-width:4px;"/>
    </g>
    <g transform="matrix(1.333333,0,0,1.333333,0,265.333333)">
        <path d="M736.1,448.9L727.7,432.1L719.3,448.9L736.1,448.9Z" style="fill-rule:nonzero;"/>
    </g>
    <g transform="matrix(0,-1.333333,1.333333,0,1425.733333,1326.133333)">
        <path d="M96.6,-81.8L169.4,-81.8L169.4,216.8L202,216.8" style="fill:none;fill-rule:nonzero;stroke:black;stroke-width:4px;"/>
    </g>
    <g transform="matrix(1.333333,0,0,1.333333,0,656.533333)">
        <path d="M1294.5,302.2L1286.1,285.4L1277.7,302.2L1294.5,302.2Z" style="fill-rule:nonzero;"/>
    </g>
    <g transform="matrix(1.333333,0,0,1.333333,0,166.550053)">
        <rect x="828.827" y="450.824" width="317.841" height="53.44"/>
    </g>
    <g transform="matrix(1.333333,0,0,-1.333333,1105.1028,838.901813)">
        <rect x="0" y="0" width="317.841" height="53.44" style="fill:none;stroke:black;stroke-width:4px;"/>
    </g>
    <g transform="matrix(1.333333,0,0,1.333333,0,-551.88968)">
        <rect x="829.934" y="720.239" width="118.8" height="53.44" style="fill:rgb(142,250,0);"/>
    </g>
    <g transform="matrix(1.333333,0,0,-1.333333,1106.5788,479.681813)">
        <rect x="0" y="0" width="118.8" height="53.44" style="fill:none;stroke:black;stroke-width:4px;"/>
    </g>
    <g transform="matrix(1.333333,0,0,1.333333,0,-551.88968)">
        <rect x="363.465" y="720.239" width="160.225" height="53.44" style="fill:rgb(142,250,0);"/>
    </g>
    <g transform="matrix(1.333333,0,0,-1.333333,484.619467,479.681813)">
        <rect x="0" y="0" width="160.225" height="53.44" style="fill:none;stroke:black;stroke-width:4px;"/>
    </g>
    <g transform="matrix(1.333333,0,0,-1.333333,591.333333,664.8)">
        <path d="M0,136.9L0,0L83.7,0" style="fill:none;fill-rule:nonzero;stroke:black;stroke-width:4px;"/>
    </g>
    <g transform="matrix(1.333333,0,0,1.333333,0,-110.4)">
        <path d="M525.2,589.8L542,581.4L525.2,573L525.2,589.8Z" style="fill-rule:nonzero;"/>
    </g>
    <g transform="matrix(1.333333,0,0,1.333333,0,556.640187)">
        <rect x="428.754" y="304.54" width="272.9" height="53.44" style="fill:rgb(142,250,0);"/>
    </g>
    <g transform="matrix(1.333333,0,0,-1.333333,571.672533,1033.946747)">
        <rect x="0" y="0" width="272.9" height="53.44" style="fill:none;stroke:black;stroke-width:4px;"/>
    </g>
    <g transform="matrix(0,-1.333333,1.333333,0,792.8,1018.933333)">
        <path d="M44.2,-29.4L76.6,-29.4L76.6,133.1L118.3,133.1" style="fill:none;fill-rule:nonzero;stroke:black;stroke-width:4px;"/>
    </g>
    <g transform="matrix(1.333333,0,0,1.333333,0,265.333333)">
        <path d="M736.1,448.9L727.7,432.1L719.3,448.9L736.1,448.9Z" style="fill-rule:nonzero;"/>
    </g>
    <g transform="matrix(1.333333,0,0,1.333333,0,-861.73688)">
        <rect x="322.727" y="836.431" width="241.7" height="53.44" style="fill:rgb(148,55,255);"/>
    </g>
    <g transform="matrix(1.333333,0,0,-1.333333,430.302933,324.758347)">
        <rect x="0" y="0" width="241.7" height="53.44" style="fill:none;stroke:black;stroke-width:4px;"/>
    </g>
    <g transform="matrix(0,1.333333,-1.333333,0,1173.066667,469.6)">
        <path d="M9.5,-9.5L57.7,-9.5L57.7,102.9L102.9,102.9" style="fill:none;fill-rule:nonzero;stroke:black;stroke-width:4px;"/>
    </g>
    <g transform="matrix(1.333333,0,0,1.333333,0,-209.333333)">
        <path d="M768.5,610.1L776.9,626.9L785.3,610.1L768.5,610.1Z" style="fill-rule:nonzero;"/>
    </g>
    <g transform="matrix(0,1.333333,-1.333333,0,1053.333333,349.866667)">
        <path d="M99.3,-99.3L147.4,-99.3L147.4,192.7L192.7,192.7" style="fill:none;fill-rule:nonzero;stroke:black;stroke-width:4px;"/>
    </g>
    <g transform="matrix(1.333333,0,0,1.333333,0,-209.333333)">
        <path d="M588.9,610.1L597.3,626.9L605.7,610.1L588.9,610.1Z" style="fill-rule:nonzero;"/>
    </g>
    <g transform="matrix(0,1.333333,-1.333333,0,1313.466667,479.066667)">
        <path d="M2.4,95.8L50.5,95.8L50.5,-2.4L95.8,-2.4" style="fill:none;fill-rule:nonzero;stroke:black;stroke-width:4px;"/>
    </g>
    <g transform="matrix(1.333333,0,0,1.333333,0,-209.333333)">
        <path d="M979.1,610.1L987.5,626.9L995.9,610.1L979.1,610.1Z" style="fill-rule:nonzero;"/>
    </g>
    <g transform="matrix(1.333333,0,0,-1.333333,591.333333,386)">
        <path d="M0,44L0,0" style="fill:none;fill-rule:nonzero;stroke:black;stroke-width:4px;"/>
    </g>
    <g transform="matrix(1.333333,0,0,1.333333,0,-650.933333)">
        <path d="M435.1,775.7L443.5,792.5L451.9,775.7L435.1,775.7Z" style="fill-rule:nonzero;"/>
    </g>
    <g transform="matrix(1.333333,0,0,1.333333,0,166.550053)">
        <rect x="1632.668" y="450.824" width="106.618" height="53.44"/>
    </g>
    <g transform="matrix(1.333333,0,0,-1.333333,2176.890667,838.901813)">
        <rect x="0" y="0" width="106.618" height="53.44" style="fill:none;stroke:black;stroke-width:4px;"/>
    </g>
    <g transform="matrix(0,1.333333,-1.333333,0,1441.266667,351.133333)">
        <path d="M98.35,191.65L146.45,191.65L146.45,-98.35L191.65,-98.35" style="fill:none;fill-rule:nonzero;stroke:black;stroke-width:4px;"/>
    </g>
    <g transform="matrix(1.333333,0,0,1.333333,0,-209.6)">
        <path d="M1170.9,610.2L1179.3,627L1187.7,610.2L1170.9,610.2Z" style="fill-rule:nonzero;"/>
    </g>
    <g transform="matrix(1.333333,0,0,1.333333,0,-861.73688)">
        <rect x="829.934" y="836.431" width="118.8" height="53.44" style="fill:rgb(148,55,255);"/>
    </g>
    <g transform="matrix(1.333333,0,0,-1.333333,1106.5788,324.758347)">
        <rect x="0" y="0" width="118.8" height="53.44" style="fill:none;stroke:black;stroke-width:4px;"/>
    </g>
    <g transform="matrix(1.333333,0,0,-1.333333,1185.733333,386)">
        <path d="M0,44L0,0" style="fill:none;fill-rule:nonzero;stroke:black;stroke-width:4px;"/>
    </g>
    <g transform="matrix(1.333333,0,0,1.333333,0,-650.933333)">
        <path d="M880.9,775.7L889.3,792.5L897.7,775.7L880.9,775.7Z" style="fill-rule:nonzero;"/>
    </g>
    <g transform="matrix(1,0,0,1,520.752667,162.4186)">
        <g transform="matrix(42.666667,0,0,42.666667,1942.418,517.7198)">
        </g>
        <text x="1562.258px" y="517.72px" style="font-family:'HelveticaNeue-Medium', 'Helvetica Neue', sans-serif;font-weight:500;font-size:42.667px;fill:white;">FileSystemW<tspan x="1817.533px 1841.255px " y="517.72px 517.72px ">at</tspan>cher</text>
    </g>
    <g transform="matrix(1,0,0,1,231.921267,162.4186)">
        <g transform="matrix(42.666667,0,0,42.666667,912.3398,517.7198)">
        </g>
        <text x="695.764px" y="517.72px" style="font-family:'HelveticaNeue-Medium', 'Helvetica Neue', sans-serif;font-weight:500;font-size:42.667px;fill:white;">FileSystem</text>
    </g>
    <g transform="matrix(1,0,0,1,190.4219,162.4186)">
        <g transform="matrix(42.666667,0,0,42.666667,640.855033,517.7198)">
        </g>
        <text x="571.266px" y="517.72px" style="font-family:'HelveticaNeue-Medium', 'Helvetica Neue', sans-serif;font-weight:500;font-size:42.667px;fill:white;">File</text>
    </g>
    <g transform="matrix(1,0,0,1,311.9928,162.4186)">
        <g transform="matrix(42.666667,0,0,42.666667,1073.493067,517.7198)">
        </g>
        <text x="935.978px" y="517.72px" style="font-family:'HelveticaNeue-Medium', 'Helvetica Neue', sans-serif;font-weight:500;font-size:42.667px;fill:white;">Socket</text>
    </g>
    <g transform="matrix(1,0,0,1,368.423333,162.3606)">
        <g transform="matrix(42.666667,0,0,42.666667,1302.902,517.5458)">
        </g>
        <text x="1105.27px" y="517.546px" style="font-family:'HelveticaNeue-Medium', 'Helvetica Neue', sans-serif;font-weight:500;font-size:42.667px;fill:white;">Thr<tspan x="1169.313px 1193.035px " y="517.546px 517.546px ">ea</tspan>ding</text>
    </g>
    <g transform="matrix(1,0,0,1,106.931667,197.0054)">
        <g transform="matrix(42.666667,0,0,42.666667,459.888333,621.4802)">
        </g>
        <text x="320.795px" y="621.48px" style="font-family:'HelveticaNeue-Medium', 'Helvetica Neue', sans-serif;font-weight:500;font-size:42.667px;fill:white;">Strings</text>
    </g>
    <g transform="matrix(1,0,0,1,408.573,197.0054)">
        <g transform="matrix(42.666667,0,0,42.666667,1386.956333,621.4802)">
        </g>
        <text x="1225.719px" y="621.48px" style="font-family:'HelveticaNeue-Medium', 'Helvetica Neue', sans-serif;font-weight:500;font-size:42.667px;fill:white;">Memory</text>
    </g>
    <g transform="matrix(1,0,0,1,217.666333,197.0054)">
        <g transform="matrix(42.666667,0,0,42.666667,852.209667,621.4802)">
        </g>
        <text x="652.999px" y="621.48px" style="font-family:'HelveticaNeue-Medium', 'Helvetica Neue', sans-serif;font-weight:500;font-size:42.667px;fill:white;">Reﬂection</text>
    </g>
    <g transform="matrix(1,0,0,1,588.177667,197.0054)">
        <g transform="matrix(42.666667,0,0,42.666667,1925.770333,621.4802)">
        </g>
        <text x="1764.533px" y="621.48px" style="font-family:'HelveticaNeue-Medium', 'Helvetica Neue', sans-serif;font-weight:500;font-size:42.667px;fill:white;">Hashing</text>
    </g>
    <g transform="matrix(1,0,0,1,163.139067,197.0054)">
        <g transform="matrix(42.666667,0,0,42.666667,630.131867,621.4802)">
        </g>
        <text x="489.417px" y="621.48px" style="font-family:'HelveticaNeue-Medium', 'Helvetica Neue', sans-serif;font-weight:500;font-size:42.667px;fill:white;">T<tspan x="509.983px 533.705px " y="621.48px 621.48px ">es</tspan>ting</text>
    </g>
    <g transform="matrix(1,0,0,1,401.954333,245.895067)">
        <g transform="matrix(42.666667,0,0,42.666667,1420.049667,768.1492)">
        </g>
        <text x="1205.863px" y="768.149px" style="font-family:'HelveticaNeue-Medium', 'Helvetica Neue', sans-serif;font-weight:500;font-size:42.667px;">Containers</text>
    </g>
    <g transform="matrix(1,0,0,1,260.725967,245.766633)">
        <g transform="matrix(42.666667,0,0,42.666667,1148.172567,767.7639)">
        </g>
        <text x="782.178px" y="767.764px" style="font-family:'HelveticaNeue-Medium', 'Helvetica Neue', sans-serif;font-weight:500;font-size:42.667px;">SerializationBinary</text>
    </g>
    <g transform="matrix(1,0,0,1,277.507467,305.119533)">
        <g transform="matrix(42.666667,0,0,42.666667,1245.919733,945.8226)">
        </g>
        <text x="832.522px" y="945.823px" style="font-family:'HelveticaNeue-Medium', 'Helvetica Neue', sans-serif;font-weight:500;font-size:42.667px;fill:white;">ContainersReﬂection</text>
    </g>
    <g transform="matrix(1,0,0,1,284.294533,197.0054)">
        <g transform="matrix(42.666667,0,0,42.666667,1212.520933,621.4802)">
        </g>
        <text x="852.884px" y="621.48px" style="font-family:'HelveticaNeue-Medium', 'Helvetica Neue', sans-serif;font-weight:500;font-size:42.667px;fill:white;">FileSystemIterator</text>
    </g>
    <g transform="matrix(1,0,0,1,281.3247,107.2004)">
        <g transform="matrix(42.666667,0,0,42.666667,964.9341,352.0652)">
        </g>
        <text x="843.974px" y="352.065px" style="font-family:'HelveticaNeue-Medium', 'Helvetica Neue', sans-serif;font-weight:500;font-size:42.667px;">Async</text>
    </g>
    <g transform="matrix(1,0,0,1,127.891067,107.2004)">
        <g transform="matrix(42.666667,0,0,42.666667,543.4172,352.0652)">
        </g>
        <text x="383.673px" y="352.065px" style="font-family:'HelveticaNeue-Medium', 'Helvetica Neue', sans-serif;font-weight:500;font-size:42.667px;">Pr<tspan x="426.383px 451.684px " y="352.065px 352.065px ">oc</tspan>ess</text>
    </g>
    <g transform="matrix(1,0,0,1,148.188133,245.766633)">
        <g transform="matrix(42.666667,0,0,42.666667,766.271067,767.7639)">
        </g>
        <text x="444.564px" y="767.764px" style="font-family:'HelveticaNeue-Medium', 'Helvetica Neue', sans-serif;font-weight:500;font-size:42.667px;">SerializationT<tspan x="705.428px 729.151px " y="767.764px 767.764px ">ex</tspan>t</text>
    </g>
    <g transform="matrix(1,0,0,1,132.445733,68.469533)">
        <g transform="matrix(42.666667,0,0,42.666667,520.643867,235.8726)">
        </g>
        <text x="397.337px" y="235.873px" style="font-family:'HelveticaNeue-Medium', 'Helvetica Neue', sans-serif;font-weight:500;font-size:42.667px;fill:white;">Plugin</text>
    </g>
    <g transform="matrix(1,0,0,1,549.939,197.0054)">
        <g transform="matrix(42.666667,0,0,42.666667,1746.243667,621.4802)">
        </g>
        <text x="1649.817px" y="621.48px" style="font-family:'HelveticaNeue-Medium', 'Helvetica Neue', sans-serif;font-weight:500;font-size:42.667px;fill:white;">Time</text>
    </g>
    <g transform="matrix(1,0,0,1,285.783367,68.469533)">
        <g transform="matrix(42.666667,0,0,42.666667,942.640767,235.8726)">
        </g>
        <text x="857.35px" y="235.873px" style="font-family:'HelveticaNeue-Medium', 'Helvetica Neue', sans-serif;font-weight:500;font-size:42.667px;fill:white;">Http</text>
    </g>
    <g transform="matrix(0,-1.333333,1.333333,0,955.666667,1202.466667)">
        <path d="M3.85,270.75L76.65,270.75L76.65,10.95L255.95,10.95" style="fill:none;fill-rule:nonzero;stroke:black;stroke-width:4px;"/>
    </g>
    <g transform="matrix(1.333333,0,0,1.333333,0,265.333333)">
        <path d="M736.1,448.9L727.7,432.1L719.3,448.9L736.1,448.9Z" style="fill-rule:nonzero;"/>
    </g>
    <g transform="matrix(1.333333,0,0,-1.333333,89.23548,896.933867)">
        <path d="M0,0L231.5,0" style="fill:none;fill-rule:nonzero;stroke:black;stroke-width:4px;"/>
    </g>
    <g transform="matrix(1.333333,0,0,1.333333,0,353.867733)">
        <path d="M296.427,415.7L313.227,407.3L296.427,398.9L296.427,415.7Z" style="fill-rule:nonzero;"/>
    </g>
    <g transform="matrix(1.333333,0,0,1.333333,0,486.52712)">
        <rect x="70.328" y="330.832" width="53.333" height="53.44"/>
    </g>
    <g transform="matrix(0.216667,0,0,0.216667,245.249333,1073.998933)">
        <rect x="0" y="0" width="160" height="160" style="fill:rgb(128,128,128);fill-opacity:0;"/>
    </g>
    <g transform="matrix(1.333333,0,0,1.333333,0,707.167653)">
        <rect x="70.328" y="248.092" width="53.333" height="53.44" style="fill:rgb(142,250,0);"/>
    </g>
    <g transform="matrix(1.333333,0,0,-1.333333,93.770747,1109.21048)">
        <rect x="0" y="0" width="53.333" height="53.44" style="fill:none;stroke:black;stroke-width:4px;"/>
    </g>
    <g transform="matrix(1.333333,0,0,1.333333,0,927.808453)">
        <rect x="70.328" y="165.352" width="53.333" height="53.44" style="fill:rgb(148,55,255);"/>
    </g>
    <g transform="matrix(1.333333,0,0,-1.333333,93.770747,1219.53088)">
        <rect x="0" y="0" width="53.333" height="53.44" style="fill:none;stroke:black;stroke-width:4px;"/>
    </g>
    <g transform="matrix(1.333333,0,0,1.333333,0,-551.88968)">
        <rect x="145.769" y="720.239" width="179.7" height="53.44" style="fill:rgb(142,250,0);"/>
    </g>
    <g transform="matrix(1.333333,0,0,-1.333333,194.3588,479.681813)">
        <rect x="0" y="0" width="179.7" height="53.44" style="fill:none;stroke:black;stroke-width:4px;"/>
    </g>
    <g transform="matrix(1.333333,0,0,-1.333333,314.133333,664.8)">
        <path d="M0,136.9L0,0L291.6,0" style="fill:none;fill-rule:nonzero;stroke:black;stroke-width:4px;"/>
    </g>
    <g transform="matrix(1.333333,0,0,1.333333,0,-110.4)">
        <path d="M525.2,589.8L542,581.4L525.2,573L525.2,589.8Z" style="fill-rule:nonzero;"/>
    </g>
    <g transform="matrix(1.333333,0,0,1.333333,0,-110.144347)">
        <rect x="1283.088" y="554.584" width="241.7" height="53.44"/>
    </g>
    <g transform="matrix(1.333333,0,0,-1.333333,1710.784,700.554613)">
        <rect x="0" y="0" width="241.7" height="53.44" style="fill:none;stroke:black;stroke-width:4px;"/>
    </g>
    <g transform="matrix(1.333333,0,0,-1.333333,1267.6,606.8)">
        <path d="M0,238.3L453.2,238.3L453.2,0" style="fill:none;fill-rule:nonzero;stroke:black;stroke-width:4px;"/>
    </g>
    <g transform="matrix(1.333333,0,0,1.333333,0,-209.333333)">
        <path d="M1395.5,610.1L1403.9,626.9L1412.3,610.1L1395.5,610.1Z" style="fill-rule:nonzero;"/>
    </g>
    <g transform="matrix(1.333333,0,0,1.333333,0,166.550053)">
        <rect x="1422.319" y="450.824" width="198.2" height="53.44"/>
    </g>
    <g transform="matrix(1.333333,0,0,-1.333333,1896.425333,838.901813)">
        <rect x="0" y="0" width="198.2" height="53.44" style="fill:none;stroke:black;stroke-width:4px;"/>
    </g>
    <g transform="matrix(1.333333,0,0,1.333333,0,-861.73688)">
        <rect x="637.881" y="836.431" width="118.8" height="53.44" style="fill:rgb(148,55,255);"/>
    </g>
    <g transform="matrix(1.333333,0,0,-1.333333,850.508267,324.758347)">
        <rect x="0" y="0" width="118.8" height="53.44" style="fill:none;stroke:black;stroke-width:4px;"/>
    </g>
    <g transform="matrix(1.333333,0,0,-1.333333,929.6,444)">
        <path d="M0,87.5L0,0L115.9,0" style="fill:none;fill-rule:nonzero;stroke:black;stroke-width:4px;"/>
    </g>
    <g transform="matrix(1.333333,0,0,1.333333,0,-552)">
        <path d="M811.1,755.4L827.9,747L811.1,738.6L811.1,755.4Z" style="fill-rule:nonzero;"/>
    </g>
    <g transform="matrix(1.333333,0,0,-1.333333,1896.425333,1034.46048)">
        <rect x="0" y="0" width="220.9" height="53.44" style="fill:none;stroke:black;stroke-width:4px;"/>
    </g>
    <g transform="matrix(1,0,0,1,37.988,215.5935)">
        <text x="113.964px" y="671.532px" style="font-family:'HelveticaNeue', 'Helvetica Neue';font-size:34.667px;">Depends on</text>
        <text x="158.857px" y="741.879px" style="font-family:'HelveticaNeue', 'Helvetica Neue';font-size:34.667px;">No</text>
        <text x="158.857px" y="780.372px" style="font-family:'HelveticaNeue', 'Helvetica Neue';font-size:34.667px;">dependencies</text>
        <text x="157.928px" y="850.372px" style="font-family:'HelveticaNeue', 'Helvetica Neue';font-size:34.667px;">Depends only</text>
        <text x="157.928px" y="889.052px" style="font-family:'HelveticaNeue', 'Helvetica Neue';font-size:34.667px;">on</text>
        <text x="206.739px" y="889.052px" style="font-family:'AppleColorEmoji', 'Apple Color Emoji';font-size:34.667px;fill-opacity:0;">◼</text>
        <text x="251.043px" y="889.052px" style="font-family:'HelveticaNeue', 'Helvetica Neue';font-size:34.667px;">libraries</text>
        <text x="157.928px" y="962.506px" style="font-family:'HelveticaNeue', 'Helvetica Neue';font-size:34.667px;">Higher Level</text>
        <g transform="matrix(34.666667,0,0,34.666667,290.805333,1000.999167)">
        </g>
        <text x="157.928px" y="1000.999px" style="font-family:'HelveticaNeue', 'Helvetica Neue';font-size:34.667px;">Libraries</text>
    </g>
    <g transform="matrix(1,0,0,1,54.3317,107.2004)">
        <g transform="matrix(42.666667,0,0,42.666667,356.6591,352.0652)">
        </g>
        <text x="162.995px" y="352.065px" style="font-family:'HelveticaNeue-Medium', 'Helvetica Neue', sans-serif;font-weight:500;font-size:42.667px;">SerialPort</text>
    </g>
    <g transform="matrix(1,0,0,1,432.507333,162.4186)">
        <g transform="matrix(42.666667,0,0,42.666667,1581.298,517.7198)">
        </g>
        <text x="1297.522px" y="517.72px" style="font-family:'HelveticaNeue-Medium', 'Helvetica Neue', sans-serif;font-weight:500;font-size:42.667px;fill:white;">AsyncStr<tspan x="1474.589px 1498.311px " y="517.72px 517.72px ">ea</tspan>ms</text>
    </g>
    <g transform="matrix(1,0,0,1,482.254333,197.0054)">
        <g transform="matrix(42.666667,0,0,42.666667,1645.845667,621.4802)">
        </g>
        <text x="1446.763px" y="621.48px" style="font-family:'HelveticaNeue-Medium', 'Helvetica Neue', sans-serif;font-weight:500;font-size:42.667px;fill:white;">HttpClient</text>
    </g>
    <g transform="matrix(1,0,0,1,218.789733,68.469533)">
        <g transform="matrix(42.666667,0,0,42.666667,765.467867,235.8726)">
        </g>
        <text x="656.369px" y="235.873px" style="font-family:'HelveticaNeue-Medium', 'Helvetica Neue', sans-serif;font-weight:500;font-size:42.667px;fill:white;">A<tspan x="684.06px 717.255px " y="235.873px 235.873px ">wa</tspan>it</text>
    </g>
    <g transform="matrix(1,0,0,1,482.965667,245.895067)">
        <g transform="matrix(42.666667,0,0,42.666667,1672.555667,768.1492)">
        </g>
        <text x="1448.897px" y="768.149px" style="font-family:'HelveticaNeue-Medium', 'Helvetica Neue', sans-serif;font-weight:500;font-size:42.667px;">Foundation</text>
    </g>
    <g transform="matrix(1,0,0,1,49.211367,318.358133)">
        <g transform="matrix(34.666667,0,0,34.666667,427.6021,979.8264)">
        </g>
        <text x="147.634px" y="979.826px" style="font-family:'HelveticaNeue', 'Helvetica Neue';font-size:34.667px;">Opt-out allocation</text>
    </g>
    <g transform="matrix(1,0,0,1,49.923067,343.49801)">
        <g transform="matrix(34.666667,0,0,34.666667,406.614533,1055.24603)">
        </g>
        <text x="149.769px" y="1055.246px" style="font-family:'HelveticaNeue', 'Helvetica Neue';font-size:34.667px;">Opt-in allocation</text>
    </g>
    <g transform="matrix(1.333333,0,0,-1.333333,1545.256,1083.058133)">
        <rect x="0" y="0" width="251.103" height="260.9" style="fill:none;stroke:rgb(238,34,12);stroke-width:6px;stroke-dasharray:6,6;"/>
    </g>
    <g transform="matrix(1.333333,0,0,-1.333333,93.770747,1321.244613)">
        <rect x="0" y="0" width="53.333" height="53.44" style="fill:none;stroke:rgb(238,34,12);stroke-width:5px;stroke-dasharray:5,5;"/>
    </g>
    <g transform="matrix(1.333333,0,0,-1.333333,93.770747,1423.62492)">
        <rect x="0" y="0" width="53.333" height="53.44" style="fill:none;stroke:rgb(136,250,78);stroke-width:5px;stroke-dasharray:5,5;"/>
    </g>
    <g transform="matrix(1.333333,0,0,-1.333333,826.502,362.2656)">
        <rect x="0" y="0" width="154.809" height="109.701" style="fill:none;stroke:rgb(136,250,78);stroke-width:8px;stroke-dasharray:8,8;"/>
    </g>
</svg>
