<?xml version="1.0" encoding="UTF-8" standalone="no"?>
<!DOCTYPE svg PUBLIC "-//W3C//DTD SVG 1.1//EN"
 "http://www.w3.org/Graphics/SVG/1.1/DTD/svg11.dtd">
<!-- Generated by graphviz version 12.2.1 (20241206.2353)
 -->
<!-- Title: LibraryDependencies Pages: 1 -->
<svg width="980pt" height="260pt"
 viewBox="0.00 0.00 980.12 260.00" xmlns="http://www.w3.org/2000/svg" xmlns:xlink="http://www.w3.org/1999/xlink">
<g id="graph0" class="graph" transform="scale(1 1) rotate(0) translate(4 256)">
<title>LibraryDependencies</title>
<polygon fill="white" stroke="none" points="-4,4 -4,-256 976.12,-256 976.12,4 -4,4"/>
<!-- Async -->
<g id="node1" class="node">
<title>Async</title>
<polygon fill="none" stroke="black" points="356.62,-180 302.62,-180 302.62,-144 356.62,-144 356.62,-180"/>
<text text-anchor="middle" x="329.62" y="-156.95" font-family="Times,serif" font-size="14.00">Async</text>
</g>
<!-- File -->
<g id="node5" class="node">
<title>File</title>
<polygon fill="none" stroke="black" points="284.62,-108 230.62,-108 230.62,-72 284.62,-72 284.62,-108"/>
<text text-anchor="middle" x="257.62" y="-84.95" font-family="Times,serif" font-size="14.00">File</text>
</g>
<!-- Async&#45;&gt;File -->
<g id="edge1" class="edge">
<title>Async&#45;&gt;File</title>
<path fill="none" stroke="black" d="M311.83,-143.7C303.35,-135.45 293.04,-125.43 283.69,-116.35"/>
<polygon fill="black" stroke="black" points="286.16,-113.86 276.55,-109.4 281.28,-118.88 286.16,-113.86"/>
</g>
<!-- FileSystem -->
<g id="node6" class="node">
<title>FileSystem</title>
<polygon fill="none" stroke="black" points="212.38,-108 134.88,-108 134.88,-72 212.38,-72 212.38,-108"/>
<text text-anchor="middle" x="173.62" y="-84.95" font-family="Times,serif" font-size="14.00">FileSystem</text>
</g>
<!-- Async&#45;&gt;FileSystem -->
<g id="edge2" class="edge">
<title>Async&#45;&gt;FileSystem</title>
<path fill="none" stroke="black" d="M302.45,-148.81C280.49,-138.95 249,-124.82 222.65,-113"/>
<polygon fill="black" stroke="black" points="224.41,-109.95 213.85,-109.05 221.54,-116.34 224.41,-109.95"/>
</g>
<!-- Socket -->
<g id="node19" class="node">
<title>Socket</title>
<polygon fill="none" stroke="black" points="428.62,-108 374.62,-108 374.62,-72 428.62,-72 428.62,-108"/>
<text text-anchor="middle" x="401.62" y="-84.95" font-family="Times,serif" font-size="14.00">Socket</text>
</g>
<!-- Async&#45;&gt;Socket -->
<g id="edge3" class="edge">
<title>Async&#45;&gt;Socket</title>
<path fill="none" stroke="black" d="M347.42,-143.7C355.9,-135.45 366.21,-125.43 375.56,-116.35"/>
<polygon fill="black" stroke="black" points="377.97,-118.88 382.7,-109.4 373.09,-113.86 377.97,-118.88"/>
</g>
<!-- Threading -->
<g id="node22" class="node">
<title>Threading</title>
<polygon fill="none" stroke="black" points="518.38,-108 446.88,-108 446.88,-72 518.38,-72 518.38,-108"/>
<text text-anchor="middle" x="482.62" y="-84.95" font-family="Times,serif" font-size="14.00">Threading</text>
</g>
<!-- Async&#45;&gt;Threading -->
<g id="edge4" class="edge">
<title>Async&#45;&gt;Threading</title>
<path fill="none" stroke="black" d="M356.98,-148.49C378.96,-138.43 410.34,-124.07 436.23,-112.23"/>
<polygon fill="black" stroke="black" points="437.57,-115.46 445.21,-108.12 434.66,-109.1 437.57,-115.46"/>
</g>
<!-- Time -->
<g id="node23" class="node">
<title>Time</title>
<polygon fill="none" stroke="black" points="356.62,-108 302.62,-108 302.62,-72 356.62,-72 356.62,-108"/>
<text text-anchor="middle" x="329.62" y="-84.95" font-family="Times,serif" font-size="14.00">Time</text>
</g>
<!-- Async&#45;&gt;Time -->
<g id="edge5" class="edge">
<title>Async&#45;&gt;Time</title>
<path fill="none" stroke="black" d="M329.62,-143.7C329.62,-136.41 329.62,-127.73 329.62,-119.54"/>
<polygon fill="black" stroke="black" points="333.13,-119.62 329.63,-109.62 326.13,-119.62 333.13,-119.62"/>
</g>
<!-- AsyncStreams -->
<g id="node2" class="node">
<title>AsyncStreams</title>
<polygon fill="none" stroke="black" points="367,-252 272.25,-252 272.25,-216 367,-216 367,-252"/>
<text text-anchor="middle" x="319.62" y="-228.95" font-family="Times,serif" font-size="14.00">AsyncStreams</text>
</g>
<!-- AsyncStreams&#45;&gt;Async -->
<g id="edge6" class="edge">
<title>AsyncStreams&#45;&gt;Async</title>
<path fill="none" stroke="black" d="M322.1,-215.7C323.15,-208.32 324.41,-199.52 325.59,-191.25"/>
<polygon fill="black" stroke="black" points="329.02,-192 326.97,-181.6 322.09,-191.01 329.02,-192"/>
</g>
<!-- Containers -->
<g id="node3" class="node">
<title>Containers</title>
<polygon fill="none" stroke="black" points="794.88,-180 720.38,-180 720.38,-144 794.88,-144 794.88,-180"/>
<text text-anchor="middle" x="757.62" y="-156.95" font-family="Times,serif" font-size="14.00">Containers</text>
</g>
<!-- Memory -->
<g id="node13" class="node">
<title>Memory</title>
<polygon fill="none" stroke="black" points="672.62,-108 608.62,-108 608.62,-72 672.62,-72 672.62,-108"/>
<text text-anchor="middle" x="640.62" y="-84.95" font-family="Times,serif" font-size="14.00">Memory</text>
</g>
<!-- Containers&#45;&gt;Memory -->
<g id="edge7" class="edge">
<title>Containers&#45;&gt;Memory</title>
<path fill="none" stroke="black" d="M728.4,-143.52C713.49,-134.6 695.16,-123.63 679.12,-114.03"/>
<polygon fill="black" stroke="black" points="681.15,-111.17 670.77,-109.04 677.56,-117.18 681.15,-111.17"/>
</g>
<!-- ContainersSerialization -->
<g id="node4" class="node">
<title>ContainersSerialization</title>
<polygon fill="none" stroke="black" points="861,-252 718.25,-252 718.25,-216 861,-216 861,-252"/>
<text text-anchor="middle" x="789.62" y="-228.95" font-family="Times,serif" font-size="14.00">ContainersSerialization</text>
</g>
<!-- ContainersSerialization&#45;&gt;Containers -->
<g id="edge8" class="edge">
<title>ContainersSerialization&#45;&gt;Containers</title>
<path fill="none" stroke="black" d="M781.71,-215.7C778.23,-208.07 774.04,-198.92 770.15,-190.4"/>
<polygon fill="black" stroke="black" points="773.41,-189.12 766.07,-181.48 767.05,-192.03 773.41,-189.12"/>
</g>
<!-- Reflection -->
<g id="node16" class="node">
<title>Reflection</title>
<polygon fill="none" stroke="black" points="762.75,-108 690.5,-108 690.5,-72 762.75,-72 762.75,-108"/>
<text text-anchor="middle" x="726.62" y="-84.95" font-family="Times,serif" font-size="14.00">Reflection</text>
</g>
<!-- ContainersSerialization&#45;&gt;Reflection -->
<g id="edge9" class="edge">
<title>ContainersSerialization&#45;&gt;Reflection</title>
<path fill="none" stroke="black" d="M781.65,-215.76C770.9,-191.2 751.67,-147.25 739.03,-118.35"/>
<polygon fill="black" stroke="black" points="742.36,-117.23 735.15,-109.48 735.95,-120.04 742.36,-117.23"/>
</g>
<!-- Foundation -->
<g id="node10" class="node">
<title>Foundation</title>
<polygon fill="none" stroke="black" points="521.38,-36 443.88,-36 443.88,0 521.38,0 521.38,-36"/>
<text text-anchor="middle" x="482.62" y="-12.95" font-family="Times,serif" font-size="14.00">Foundation</text>
</g>
<!-- File&#45;&gt;Foundation -->
<g id="edge10" class="edge">
<title>File&#45;&gt;Foundation</title>
<path fill="none" stroke="black" d="M284.77,-80.56C321.37,-69.17 387.22,-48.68 432.85,-34.49"/>
<polygon fill="black" stroke="black" points="433.74,-37.87 442.25,-31.56 431.66,-31.19 433.74,-37.87"/>
</g>
<!-- FileSystem&#45;&gt;Foundation -->
<g id="edge11" class="edge">
<title>FileSystem&#45;&gt;Foundation</title>
<path fill="none" stroke="black" d="M212.76,-80.13C268.71,-67.46 371.57,-44.16 432.87,-30.27"/>
<polygon fill="black" stroke="black" points="433.35,-33.75 442.33,-28.13 431.81,-26.92 433.35,-33.75"/>
</g>
<!-- FileSystemIterator -->
<g id="node7" class="node">
<title>FileSystemIterator</title>
<polygon fill="none" stroke="black" points="117.25,-108 0,-108 0,-72 117.25,-72 117.25,-108"/>
<text text-anchor="middle" x="58.62" y="-84.95" font-family="Times,serif" font-size="14.00">FileSystemIterator</text>
</g>
<!-- FileSystemIterator&#45;&gt;Foundation -->
<g id="edge12" class="edge">
<title>FileSystemIterator&#45;&gt;Foundation</title>
<path fill="none" stroke="black" d="M117.58,-79.27C201.4,-65.43 353.58,-40.3 432.36,-27.3"/>
<polygon fill="black" stroke="black" points="432.64,-30.8 441.94,-25.72 431.5,-23.89 432.64,-30.8"/>
</g>
<!-- FileSystemWatcher -->
<g id="node8" class="node">
<title>FileSystemWatcher</title>
<polygon fill="none" stroke="black" points="536.25,-180 413,-180 413,-144 536.25,-144 536.25,-180"/>
<text text-anchor="middle" x="474.62" y="-156.95" font-family="Times,serif" font-size="14.00">FileSystemWatcher</text>
</g>
<!-- FileSystemWatcher&#45;&gt;Threading -->
<g id="edge13" class="edge">
<title>FileSystemWatcher&#45;&gt;Threading</title>
<path fill="none" stroke="black" d="M476.6,-143.7C477.44,-136.41 478.43,-127.73 479.36,-119.54"/>
<polygon fill="black" stroke="black" points="482.84,-119.94 480.5,-109.61 475.89,-119.15 482.84,-119.94"/>
</g>
<!-- FileSystemWatcherAsync -->
<g id="node9" class="node">
<title>FileSystemWatcherAsync</title>
<polygon fill="none" stroke="black" points="542.5,-252 384.75,-252 384.75,-216 542.5,-216 542.5,-252"/>
<text text-anchor="middle" x="463.62" y="-228.95" font-family="Times,serif" font-size="14.00">FileSystemWatcherAsync</text>
</g>
<!-- FileSystemWatcherAsync&#45;&gt;Async -->
<g id="edge14" class="edge">
<title>FileSystemWatcherAsync&#45;&gt;Async</title>
<path fill="none" stroke="black" d="M430.16,-215.52C410.88,-205.45 386.62,-192.77 366.76,-182.4"/>
<polygon fill="black" stroke="black" points="368.65,-179.44 358.16,-177.91 365.4,-185.64 368.65,-179.44"/>
</g>
<!-- FileSystemWatcherAsync&#45;&gt;FileSystemWatcher -->
<g id="edge15" class="edge">
<title>FileSystemWatcherAsync&#45;&gt;FileSystemWatcher</title>
<path fill="none" stroke="black" d="M466.34,-215.7C467.5,-208.32 468.89,-199.52 470.19,-191.25"/>
<polygon fill="black" stroke="black" points="473.61,-192.02 471.7,-181.6 466.69,-190.93 473.61,-192.02"/>
</g>
<!-- Hashing -->
<g id="node11" class="node">
<title>Hashing</title>
<polygon fill="none" stroke="black" points="842.12,-108 781.12,-108 781.12,-72 842.12,-72 842.12,-108"/>
<text text-anchor="middle" x="811.62" y="-84.95" font-family="Times,serif" font-size="14.00">Hashing</text>
</g>
<!-- Hashing&#45;&gt;Foundation -->
<g id="edge16" class="edge">
<title>Hashing&#45;&gt;Foundation</title>
<path fill="none" stroke="black" d="M780.67,-82.41C723.7,-70.29 601.76,-44.35 532.81,-29.68"/>
<polygon fill="black" stroke="black" points="533.8,-26.31 523.29,-27.65 532.34,-33.16 533.8,-26.31"/>
</g>
<!-- Http -->
<g id="node12" class="node">
<title>Http</title>
<polygon fill="none" stroke="black" points="614.62,-252 560.62,-252 560.62,-216 614.62,-216 614.62,-252"/>
<text text-anchor="middle" x="587.62" y="-228.95" font-family="Times,serif" font-size="14.00">Http</text>
</g>
<!-- Http&#45;&gt;Async -->
<g id="edge17" class="edge">
<title>Http&#45;&gt;Async</title>
<path fill="none" stroke="black" d="M560.5,-225.64C514.34,-213.12 420.39,-187.62 367.67,-173.32"/>
<polygon fill="black" stroke="black" points="368.8,-170 358.23,-170.76 366.97,-176.76 368.8,-170"/>
</g>
<!-- Http&#45;&gt;Containers -->
<g id="edge18" class="edge">
<title>Http&#45;&gt;Containers</title>
<path fill="none" stroke="black" d="M614.94,-221.75C640.38,-211.28 678.87,-195.43 709.47,-182.83"/>
<polygon fill="black" stroke="black" points="710.61,-186.14 718.52,-179.1 707.95,-179.67 710.61,-186.14"/>
</g>
<!-- Strings -->
<g id="node20" class="node">
<title>Strings</title>
<polygon fill="none" stroke="black" points="590.75,-108 536.5,-108 536.5,-72 590.75,-72 590.75,-108"/>
<text text-anchor="middle" x="563.62" y="-84.95" font-family="Times,serif" font-size="14.00">Strings</text>
</g>
<!-- Http&#45;&gt;Strings -->
<g id="edge19" class="edge">
<title>Http&#45;&gt;Strings</title>
<path fill="none" stroke="black" d="M584.59,-215.76C580.53,-191.42 573.3,-148.02 568.48,-119.12"/>
<polygon fill="black" stroke="black" points="571.99,-118.87 566.89,-109.58 565.08,-120.02 571.99,-118.87"/>
</g>
<!-- Memory&#45;&gt;Foundation -->
<g id="edge20" class="edge">
<title>Memory&#45;&gt;Foundation</title>
<path fill="none" stroke="black" d="M608.27,-74.67C586.31,-64.94 556.85,-51.89 531.98,-40.87"/>
<polygon fill="black" stroke="black" points="533.59,-37.75 523.03,-36.9 530.75,-44.15 533.59,-37.75"/>
</g>
<!-- Plugin -->
<g id="node14" class="node">
<title>Plugin</title>
<polygon fill="none" stroke="black" points="244.62,-252 190.62,-252 190.62,-216 244.62,-216 244.62,-252"/>
<text text-anchor="middle" x="217.62" y="-228.95" font-family="Times,serif" font-size="14.00">Plugin</text>
</g>
<!-- Plugin&#45;&gt;FileSystem -->
<g id="edge21" class="edge">
<title>Plugin&#45;&gt;FileSystem</title>
<path fill="none" stroke="black" d="M212.05,-215.76C204.58,-191.31 191.24,-147.63 182.41,-118.74"/>
<polygon fill="black" stroke="black" points="185.86,-118.08 179.59,-109.54 179.17,-120.12 185.86,-118.08"/>
</g>
<!-- Plugin&#45;&gt;FileSystemIterator -->
<g id="edge22" class="edge">
<title>Plugin&#45;&gt;FileSystemIterator</title>
<path fill="none" stroke="black" d="M197.49,-215.76C169.61,-190.51 119.1,-144.77 87.29,-115.96"/>
<polygon fill="black" stroke="black" points="89.73,-113.45 79.97,-109.33 85.03,-118.64 89.73,-113.45"/>
</g>
<!-- Process -->
<g id="node15" class="node">
<title>Process</title>
<polygon fill="none" stroke="black" points="246.25,-180 189,-180 189,-144 246.25,-144 246.25,-180"/>
<text text-anchor="middle" x="217.62" y="-156.95" font-family="Times,serif" font-size="14.00">Process</text>
</g>
<!-- Plugin&#45;&gt;Process -->
<g id="edge23" class="edge">
<title>Plugin&#45;&gt;Process</title>
<path fill="none" stroke="black" d="M217.62,-215.7C217.62,-208.41 217.62,-199.73 217.62,-191.54"/>
<polygon fill="black" stroke="black" points="221.13,-191.62 217.63,-181.62 214.13,-191.62 221.13,-191.62"/>
</g>
<!-- Plugin&#45;&gt;Strings -->
<g id="edge24" class="edge">
<title>Plugin&#45;&gt;Strings</title>
<path fill="none" stroke="black" d="M245.06,-222.58C306.51,-197.01 455.28,-135.09 525.6,-105.83"/>
<polygon fill="black" stroke="black" points="526.9,-109.08 534.79,-102 524.21,-102.61 526.9,-109.08"/>
</g>
<!-- Plugin&#45;&gt;Time -->
<g id="edge25" class="edge">
<title>Plugin&#45;&gt;Time</title>
<path fill="none" stroke="black" d="M231.81,-215.76C251.25,-190.77 286.31,-145.69 308.75,-116.84"/>
<polygon fill="black" stroke="black" points="311.25,-119.33 314.63,-109.28 305.72,-115.03 311.25,-119.33"/>
</g>
<!-- Process&#45;&gt;File -->
<g id="edge26" class="edge">
<title>Process&#45;&gt;File</title>
<path fill="none" stroke="black" d="M227.51,-143.7C231.97,-135.9 237.33,-126.51 242.29,-117.83"/>
<polygon fill="black" stroke="black" points="245.18,-119.84 247.1,-109.42 239.1,-116.36 245.18,-119.84"/>
</g>
<!-- Reflection&#45;&gt;Foundation -->
<g id="edge27" class="edge">
<title>Reflection&#45;&gt;Foundation</title>
<path fill="none" stroke="black" d="M690.1,-78.52C648.25,-66.52 579.44,-46.78 532.64,-33.35"/>
<polygon fill="black" stroke="black" points="533.86,-30.06 523.29,-30.67 531.93,-36.79 533.86,-30.06"/>
</g>
<!-- SerializationBinary -->
<g id="node17" class="node">
<title>SerializationBinary</title>
<polygon fill="none" stroke="black" points="972.12,-180 851.12,-180 851.12,-144 972.12,-144 972.12,-180"/>
<text text-anchor="middle" x="911.62" y="-156.95" font-family="Times,serif" font-size="14.00">SerializationBinary</text>
</g>
<!-- SerializationBinary&#45;&gt;Reflection -->
<g id="edge28" class="edge">
<title>SerializationBinary&#45;&gt;Reflection</title>
<path fill="none" stroke="black" d="M865.42,-143.52C837.33,-132.89 801.56,-119.36 773.38,-108.69"/>
<polygon fill="black" stroke="black" points="774.98,-105.56 764.39,-105.29 772.5,-112.1 774.98,-105.56"/>
</g>
<!-- SerializationText -->
<g id="node18" class="node">
<title>SerializationText</title>
<polygon fill="none" stroke="black" points="702.12,-180 593.12,-180 593.12,-144 702.12,-144 702.12,-180"/>
<text text-anchor="middle" x="647.62" y="-156.95" font-family="Times,serif" font-size="14.00">SerializationText</text>
</g>
<!-- SerializationText&#45;&gt;Reflection -->
<g id="edge29" class="edge">
<title>SerializationText&#45;&gt;Reflection</title>
<path fill="none" stroke="black" d="M667.15,-143.7C676.65,-135.28 688.23,-125.02 698.65,-115.79"/>
<polygon fill="black" stroke="black" points="700.75,-118.6 705.91,-109.35 696.11,-113.36 700.75,-118.6"/>
</g>
<!-- SerializationText&#45;&gt;Strings -->
<g id="edge30" class="edge">
<title>SerializationText&#45;&gt;Strings</title>
<path fill="none" stroke="black" d="M626.86,-143.7C616.66,-135.2 604.2,-124.81 593.04,-115.51"/>
<polygon fill="black" stroke="black" points="595.53,-113.03 585.6,-109.32 591.05,-118.41 595.53,-113.03"/>
</g>
<!-- Socket&#45;&gt;Foundation -->
<g id="edge31" class="edge">
<title>Socket&#45;&gt;Foundation</title>
<path fill="none" stroke="black" d="M421.65,-71.7C431.38,-63.28 443.26,-53.02 453.94,-43.79"/>
<polygon fill="black" stroke="black" points="456.13,-46.52 461.41,-37.34 451.55,-41.23 456.13,-46.52"/>
</g>
<!-- Strings&#45;&gt;Foundation -->
<g id="edge32" class="edge">
<title>Strings&#45;&gt;Foundation</title>
<path fill="none" stroke="black" d="M543.6,-71.7C533.87,-63.28 521.99,-53.02 511.31,-43.79"/>
<polygon fill="black" stroke="black" points="513.7,-41.23 503.84,-37.34 509.12,-46.52 513.7,-41.23"/>
</g>
<!-- Testing -->
<g id="node21" class="node">
<title>Testing</title>
<polygon fill="none" stroke="black" points="916.88,-108 860.38,-108 860.38,-72 916.88,-72 916.88,-108"/>
<text text-anchor="middle" x="888.62" y="-84.95" font-family="Times,serif" font-size="14.00">Testing</text>
</g>
<!-- Testing&#45;&gt;Foundation -->
<g id="edge33" class="edge">
<title>Testing&#45;&gt;Foundation</title>
<path fill="none" stroke="black" d="M860.08,-84.08C791.91,-72.33 618.96,-42.51 532.88,-27.66"/>
<polygon fill="black" stroke="black" points="533.52,-24.22 523.07,-25.97 532.33,-31.12 533.52,-24.22"/>
</g>
<!-- Threading&#45;&gt;Foundation -->
<g id="edge34" class="edge">
<title>Threading&#45;&gt;Foundation</title>
<path fill="none" stroke="black" d="M482.62,-71.7C482.62,-64.41 482.62,-55.73 482.62,-47.54"/>
<polygon fill="black" stroke="black" points="486.13,-47.62 482.63,-37.62 479.13,-47.62 486.13,-47.62"/>
</g>
<!-- Time&#45;&gt;Foundation -->
<g id="edge35" class="edge">
<title>Time&#45;&gt;Foundation</title>
<path fill="none" stroke="black" d="M356.98,-76.49C378.43,-66.67 408.83,-52.76 434.35,-41.08"/>
<polygon fill="black" stroke="black" points="435.58,-44.37 443.21,-37.03 432.66,-38.01 435.58,-44.37"/>
</g>
</g>
</svg>
